<svg width="65" height="68" viewBox="0 0 65 68" fill="none" xmlns="http://www.w3.org/2000/svg">
<circle cx="32.5" cy="32.5" r="32.5" fill="url(#paint0_radial_12_25)"/>
<path d="M49.094 39.7779C50.855 40.4538 52.8097 40.4487 54.5671 39.7639C56.3246 39.079 57.755 37.7647 58.5723 36.0841C59.3895 34.4035 59.5333 32.4804 58.9749 30.6997C58.4165 28.919 57.197 27.4119 55.5605 26.4801L53.3934 25.2459L55.06 22.3983C55.3907 21.8317 55.4801 21.1588 55.3086 20.5273C55.137 19.8958 54.7186 19.3571 54.145 19.0296L28.1645 4.23304C27.5902 3.9068 26.908 3.81861 26.2678 3.98783C25.6276 4.15705 25.0816 4.56986 24.7495 5.13569L19.3329 14.3904C19.0022 14.957 18.9128 15.6298 19.0844 16.2614C19.2559 16.8929 19.6744 17.4315 20.248 17.7591L46.2284 32.5556C46.8028 32.8819 47.4849 32.97 48.1251 32.8008C48.7653 32.6316 49.3113 32.2188 49.6434 31.653L51.7267 28.0935L53.8938 29.3277C54.8027 29.8453 55.4799 30.6824 55.7899 31.6713C56.1 32.6603 56.0201 33.7284 55.5662 34.6617C55.1124 35.5951 54.3179 36.325 53.3419 36.7055C52.3659 37.0859 51.2803 37.0888 50.3022 36.7135L33.2015 30.1522L29.57 36.357L24.5182 33.4799L13.2684 52.7011L26.2586 60.0993L37.5084 40.8781L32.4567 38.001L34.6584 34.2393L49.094 39.7779ZM47.1734 29.297L22.6363 15.3225L27.2196 7.49165L51.7566 21.4661L47.1734 29.297ZM32.9551 42.0817L25.0385 55.6077L17.8217 51.4976L25.7383 37.9715L32.9551 42.0817Z" fill="#020202"/>
<defs>
<radialGradient id="paint0_radial_12_25" cx="0" cy="0" r="1" gradientUnits="userSpaceOnUse" gradientTransform="translate(32.5 32.5) rotate(90) scale(32.5)">
<stop offset="0.104167" stop-color="white"/>
<stop offset="0.9999" stop-color="#E4660D" stop-opacity="0.91"/>
</radialGradient>
</defs>
</svg>
